<?xml version="1.0" encoding="UTF-8" standalone="no"?>
<svg
   id="flag-icons-gb"
   viewBox="0 0 640 480"
   version="1.1"
   sodipodi:docname="en.svg"
   inkscape:version="1.3.2 (1:1.3.2+202311252150+091e20ef0f)"
   xmlns:inkscape="http://www.inkscape.org/namespaces/inkscape"
   xmlns:sodipodi="http://sodipodi.sourceforge.net/DTD/sodipodi-0.dtd"
   xmlns="http://www.w3.org/2000/svg"
   xmlns:svg="http://www.w3.org/2000/svg">
  <defs
     id="defs5" />
  <sodipodi:namedview
     id="namedview5"
     pagecolor="#ffffff"
     bordercolor="#000000"
     borderopacity="0.25"
     inkscape:showpageshadow="2"
     inkscape:pageopacity="0.0"
     inkscape:pagecheckerboard="0"
     inkscape:deskcolor="#d1d1d1"
     inkscape:zoom="0.35625"
     inkscape:cx="371.92982"
     inkscape:cy="199.29825"
     inkscape:window-width="1707"
     inkscape:window-height="888"
     inkscape:window-x="0"
     inkscape:window-y="0"
     inkscape:window-maximized="1"
     inkscape:current-layer="flag-icons-gb" />
  <path
     fill="#012169"
     d="M0 0h640v480H0z"
     id="path1" />
  <path
     fill="#FFF"
     d="m75 0 244 181L562 0h78v62L400 241l240 178v61h-80L320 301 81 480H0v-60l239-178L0 64V0z"
     id="path2" />
  <path
     fill="#C8102E"
     d="m424 281 216 159v40L369 281zm-184 20 6 35L54 480H0zM640 0v3L391 191l2-44L590 0zM0 0l239 176h-60L0 42z"
     id="path3" />
  <path
     fill="#FFF"
     d="M241 0v480h160V0zM0 160v160h640V160z"
     id="path4" />
  <path
     fill="#C8102E"
     d="M0 193v96h640v-96zM273 0v480h96V0z"
     id="path5" />
</svg>
